name Walk9.mot
datacolumns 19
datarows 27
range 3.97000000 3.99600000
endheader

                time	   L_ground_force_vx	   L_ground_force_vy	   L_ground_force_vz	   L_ground_force_px	   L_ground_force_py	   L_ground_force_pz	   R_ground_force_vx	   R_ground_force_vy	   R_ground_force_vz	   R_ground_force_px	   R_ground_force_py	   R_ground_force_pz	   L_ground_torque_x	   L_ground_torque_y	   L_ground_torque_z	   R_ground_torque_x	   R_ground_torque_y	   R_ground_torque_z	
          3.97000000	          0.04693921	          0.11298989	         -0.00514480	         -0.00011888	          0.00000000	         -0.00006165	        -28.65121858	        669.56093654	        -48.37064445	          0.46340261	          0.00000000	          0.10286657	          0.00000000	          0.00003616	          0.00000000	          0.00000000	          4.70451490	          0.00000000	
          3.97100000	          0.04392634	          0.10628646	         -0.00524338	         -0.00011650	          0.00000000	         -0.00006067	        -28.43889612	        668.02604768	        -48.24846628	          0.46397533	          0.00000000	          0.10286596	          0.00000000	          0.00001551	          0.00000000	          0.00000000	          4.65356623	          0.00000000	
          3.97200000	          0.04100365	          0.09975135	         -0.00531377	         -0.00011389	          0.00000000	         -0.00005954	        -28.23102802	        666.52184141	        -48.12797553	          0.46454859	          0.00000000	          0.10286517	          0.00000000	         -0.00000344	          0.00000000	          0.00000000	          4.60345934	          0.00000000	
          3.97300000	          0.03817451	          0.09339495	         -0.00535809	         -0.00011107	          0.00000000	         -0.00005828	        -28.02752268	        665.04873261	        -48.00908325	          0.46512231	          0.00000000	          0.10286420	          0.00000000	         -0.00002077	          0.00000000	          0.00000000	          4.55419295	          0.00000000	
          3.97400000	          0.03544166	          0.08722608	         -0.00537840	         -0.00010807	          0.00000000	         -0.00005690	        -27.82828544	        663.60710682	        -47.89169656	          0.46569638	          0.00000000	          0.10286306	          0.00000000	         -0.00003655	          0.00000000	          0.00000000	          4.50576579	          0.00000000	
          3.97500000	          0.03280725	          0.08125210	         -0.00537665	         -0.00010492	          0.00000000	         -0.00005543	        -27.63321871	        662.19731925	        -47.77571941	          0.46627072	          0.00000000	          0.10286174	          0.00000000	         -0.00005085	          0.00000000	          0.00000000	          4.45817631	          0.00000000	
          3.97600000	          0.03027286	          0.07547903	         -0.00535474	         -0.00010163	          0.00000000	         -0.00005388	        -27.44222157	        660.81969387	        -47.66105336	          0.46684523	          0.00000000	          0.10286025	          0.00000000	         -0.00006374	          0.00000000	          0.00000000	          4.41142241	          0.00000000	
          3.97700000	          0.02783955	          0.06991159	         -0.00531445	         -0.00009825	          0.00000000	         -0.00005225	        -27.25518923	        659.47452300	        -47.54759829	          0.46741981	          0.00000000	          0.10285860	          0.00000000	         -0.00007529	          0.00000000	          0.00000000	          4.36550109	          0.00000000	
          3.97800000	          0.02550794	          0.06455333	         -0.00525751	         -0.00009478	          0.00000000	         -0.00005056	        -27.07201258	        658.16206822	        -47.43525338	          0.46799435	          0.00000000	          0.10285677	          0.00000000	         -0.00008557	          0.00000000	          0.00000000	          4.32040830	          0.00000000	
          3.97900000	          0.02327818	          0.05940673	         -0.00518555	         -0.00009124	          0.00000000	         -0.00004883	        -26.89257809	        656.88256271	        -47.32391816	          0.46856877	          0.00000000	          0.10285477	          0.00000000	         -0.00009466	          0.00000000	          0.00000000	          4.27613893	          0.00000000	
          3.98000000	          0.02115004	          0.05447322	         -0.00510010	         -0.00008767	          0.00000000	         -0.00004706	        -26.71676796	        655.63621447	        -47.21349395	          0.46914296	          0.00000000	          0.10285259	          0.00000000	         -0.00010262	          0.00000000	          0.00000000	          4.23268701	          0.00000000	
          3.98100000	          0.01912292	          0.04975334	         -0.00500265	         -0.00008406	          0.00000000	         -0.00004526	        -26.54446053	        654.42320941	        -47.10388520	          0.46971682	          0.00000000	          0.10285023	          0.00000000	         -0.00010951	          0.00000000	          0.00000000	          4.19004594	          0.00000000	
          3.98200000	          0.01719590	          0.04524676	         -0.00489459	         -0.00008045	          0.00000000	         -0.00004345	        -26.37553067	        653.24371346	        -46.99500082	          0.47029026	          0.00000000	          0.10284770	          0.00000000	         -0.00011541	          0.00000000	          0.00000000	          4.14820884	          0.00000000	
          3.98300000	          0.01536774	          0.04095237	         -0.00477721	         -0.00007683	          0.00000000	         -0.00004162	        -26.20985011	        652.09787358	        -46.88675517	          0.47086319	          0.00000000	          0.10284500	          0.00000000	         -0.00012036	          0.00000000	          0.00000000	          4.10716873	          0.00000000	
          3.98400000	          0.01363695	          0.03686836	         -0.00465176	         -0.00007324	          0.00000000	         -0.00003979	        -26.04728764	        650.98581776	        -46.77906870	          0.47143550	          0.00000000	          0.10284213	          0.00000000	         -0.00012444	          0.00000000	          0.00000000	          4.06691852	          0.00000000	
          3.98500000	          0.01200179	          0.03299227	         -0.00451940	         -0.00006967	          0.00000000	         -0.00003797	        -25.88770937	        649.90765427	        -46.67186846	          0.47200710	          0.00000000	          0.10283910	          0.00000000	         -0.00012771	          0.00000000	          0.00000000	          4.02745099	          0.00000000	
          3.98600000	          0.01046030	          0.02932107	         -0.00438122	         -0.00006614	          0.00000000	         -0.00003616	        -25.73097871	        648.86347040	        -46.56508837	          0.47257790	          0.00000000	          0.10283595	          0.00000000	         -0.00013021	          0.00000000	          0.00000000	          3.98875847	          0.00000000	
          3.98700000	          0.00901035	          0.02585121	         -0.00423823	         -0.00006267	          0.00000000	         -0.00003436	        -25.57695634	        647.85333068	        -46.45866963	          0.47314782	          0.00000000	          0.10283267	          0.00000000	         -0.00013201	          0.00000000	          0.00000000	          3.95083260	          0.00000000	
          3.98800000	          0.00764963	          0.02257869	         -0.00409138	         -0.00005925	          0.00000000	         -0.00003259	        -25.42549986	        646.87727512	        -46.35256116	          0.47371676	          0.00000000	          0.10282929	          0.00000000	         -0.00013315	          0.00000000	          0.00000000	          3.91366392	          0.00000000	
          3.98900000	          0.00637570	          0.01949910	         -0.00394156	         -0.00005590	          0.00000000	         -0.00003085	        -25.27646326	        645.93531787	        -46.24672037	          0.47428465	          0.00000000	          0.10282583	          0.00000000	         -0.00013370	          0.00000000	          0.00000000	          3.87724157	          0.00000000	
          3.99000000	          0.00518599	          0.01660766	         -0.00378958	         -0.00005262	          0.00000000	         -0.00002914	        -25.12969629	        645.02744694	        -46.14111389	          0.47485141	          0.00000000	          0.10282230	          0.00000000	         -0.00013369	          0.00000000	          0.00000000	          3.84155295	          0.00000000	
          3.99100000	          0.00407784	          0.01389931	         -0.00363620	         -0.00004942	          0.00000000	         -0.00002746	        -24.98504405	        644.15362551	        -46.03571818	          0.47541697	          0.00000000	          0.10281870	          0.00000000	         -0.00013318	          0.00000000	          0.00000000	          3.80658353	          0.00000000	
          3.99200000	          0.00304850	          0.01136871	         -0.00348213	         -0.00004631	          0.00000000	         -0.00002582	        -24.84234666	        643.31379487	        -45.93051977	          0.47598128	          0.00000000	          0.10281505	          0.00000000	         -0.00013221	          0.00000000	          0.00000000	          3.77231673	          0.00000000	
          3.99300000	          0.00209516	          0.00901031	         -0.00332799	         -0.00004329	          0.00000000	         -0.00002422	        -24.70143937	        642.50787869	        -45.82551488	          0.47654427	          0.00000000	          0.10281133	          0.00000000	         -0.00013082	          0.00000000	          0.00000000	          3.73873384	          0.00000000	
          3.99400000	          0.00121496	          0.00681839	         -0.00317439	         -0.00004036	          0.00000000	         -0.00002267	        -24.56215284	        641.73578753	        -45.72070875	          0.47710590	          0.00000000	          0.10280754	          0.00000000	         -0.00012906	          0.00000000	          0.00000000	          3.70581412	          0.00000000	
          3.99500000	          0.00040500	          0.00478706	         -0.00302185	         -0.00003753	          0.00000000	         -0.00002117	        -24.42431380	        640.99742253	        -45.61611475	          0.47766611	          0.00000000	          0.10280369	          0.00000000	         -0.00012696	          0.00000000	          0.00000000	          3.67353493	          0.00000000	
          3.99600000	         -0.00033762	          0.00291036	         -0.00287086	         -0.00003479	          0.00000000	         -0.00001971	        -24.28774593	        640.29267742	        -45.51175363	          0.47822487	          0.00000000	          0.10279976	          0.00000000	         -0.00012456	          0.00000000	          0.00000000	          3.64187183	          0.00000000	
